SPORT: Rugby Highlights - LV= Cup
On: itv 
Date: Sunday 3rd February 2013 
Time: 23:15 to 00:10

Martin Bayfield presents highlights from Round 4 of the popular Anglo-Welsh competition from Parc y Scarlets in Llanelli, where Scarlets take on Leicester. With the pick of the action from the rest of the weekend's matches.

General
Complete name: 2013.02.03.LV.Rugby.Highlights.pdtv.x264.mkv
Format: Matroska
Format version: Version 2
File size: 451 MiB
Duration: 45mn 22s
Overall bit rate: 1 391 Kbps
Encoded date: UTC 2013-02-04 12:33:13
Writing application: mkvmerge v5.8.0 ('No Sleep / Pillow') built on Sep2 2012 15:37:04
Writing library: libebml v1.2.3 + libmatroska v1.3.0

Video
ID: 1
Format: AVC
Format/Info: Advanced Video Codec
Format profile: High@L3.1
Format settings, CABAC: Yes
Format settings, ReFrames: 11 frames
Codec ID: V_MPEG4/ISO/AVC
Duration: 45mn 22s
Bit rate: 1 235 Kbps
Width: 688 pixels
Height: 560 pixels
Display aspect ratio: 16:9
Original display aspect ratio: 16:9
Frame rate mode: Constant
Frame rate: 25.000 fps
Color space: YUV
Chroma subsampling: 4:2:0
Bit depth: 8 bits
Scan type: Progressive
Bits/(Pixel*Frame): 0.128
Stream size: 401 MiB (89%)
Writing library: x264 core 129 r2230 1cffe9f

Audio
ID: 2
Format: AC-3
Format/Info: Audio Coding 3
Mode extension: CM (complete main)
Format settings, Endianness: Big
Codec ID: A_AC3
Duration: 45mn 22s
Bit rate mode: Constant
Bit rate: 128 Kbps
Channel(s): 2 channels
Channel positions: Front: L R
Sampling rate: 48.0 KHz
Bit depth: 16 bits
Compression mode: Lossy
Stream size: 41.5 MiB (9%)
Language: English

